<?xml version="1.0" standalone="no"?>
<svg viewBox="0 0 200 200" xmlns="http://www.w3.org/2000/svg">
  <path fill="#A4BE8F" d="M38.3,-60C52.7,-50.4,69.4,-44.9,77.8,-33.5C86.1,-22.1,86,-4.9,78.1,7.3C70.2,19.5,54.6,26.6,44.7,39.4C34.7,52.2,30.4,70.7,21.6,73.1C12.7,75.6,-0.8,62.1,-17.1,57.6C-33.4,53.1,-52.5,57.6,-60.6,51C-68.6,44.4,-65.7,26.7,-66.7,10.4C-67.7,-5.8,-72.7,-20.6,-69.3,-33.1C-65.8,-45.5,-54,-55.6,-41.1,-65.9C-28.1,-76.1,-14.1,-86.7,-1,-85C12,-83.4,24,-69.7,38.3,-60Z" transform="translate(100 100)" />
</svg>
